<?xml version="1.0" standalone="no"?>
<!DOCTYPE svg PUBLIC "-//W3C//DTD SVG 20010904//EN"
 "http://www.w3.org/TR/2001/REC-SVG-20010904/DTD/svg10.dtd">
<svg version="1.0" xmlns="http://www.w3.org/2000/svg"
 width="48.000000pt" height="48.000000pt" viewBox="0 0 48.000000 48.000000"
 preserveAspectRatio="xMidYMid meet">

<g transform="translate(0.000000,48.000000) scale(0.100000,-0.100000)"
fill="#000000" stroke="none">
<path d="M208 387 c-3 -19 -2 -25 4 -19 6 6 8 18 6 28 -3 14 -5 12 -10 -9z"/>
<path d="M255 400 c-3 -6 0 -10 8 -10 8 0 22 -12 32 -26 11 -18 20 -23 27 -16
14 14 3 29 -32 47 -18 9 -31 11 -35 5z"/>
<path d="M157 392 c-10 -19 -6 -86 5 -99 7 -9 30 -26 50 -39 35 -22 38 -28 38
-69 0 -24 5 -47 11 -51 9 -5 10 6 7 40 -3 25 -2 46 1 46 17 0 51 -48 46 -62
-9 -23 9 -30 22 -9 16 26 -10 74 -53 97 -19 10 -34 24 -34 30 0 12 -28 29 -42
26 -5 -1 -8 3 -8 8 0 6 -7 10 -15 10 -18 0 -21 56 -3 62 8 3 6 7 -5 11 -9 3
-18 3 -20 -1z"/>
<path d="M211 334 c0 -11 3 -14 6 -6 3 7 2 16 -1 19 -3 4 -6 -2 -5 -13z"/>
<path d="M209 190 c-4 -30 -5 -57 -3 -59 10 -11 15 12 12 60 l-3 54 -6 -55z"/>
<path d="M147 153 c-11 -11 -8 -23 6 -23 8 0 14 7 14 15 0 16 -9 19 -20 8z"/>
<path d="M270 99 c0 -5 5 -7 10 -4 6 3 10 8 10 11 0 2 -4 4 -10 4 -5 0 -10 -5
-10 -11z"/>
<path d="M210 30 c0 -5 5 -10 10 -10 6 0 10 5 10 10 0 6 -4 10 -10 10 -5 0
-10 -4 -10 -10z"/>
</g>
</svg>
