<?xml version="1.0" standalone="no"?>
<!DOCTYPE svg PUBLIC "-//W3C//DTD SVG 20010904//EN"
 "http://www.w3.org/TR/2001/REC-SVG-20010904/DTD/svg10.dtd">
<svg version="1.0" xmlns="http://www.w3.org/2000/svg"
 width="48.000000pt" height="48.000000pt" viewBox="0 0 48.000000 48.000000"
 preserveAspectRatio="xMidYMid meet">

<g transform="translate(0.000000,48.000000) scale(0.100000,-0.100000)"
fill="#000000" stroke="none">
<path d="M133 455 c-124 -62 -168 -203 -103 -331 22 -45 41 -66 77 -89 44 -27
56 -30 133 -30 79 0 89 2 136 32 75 48 107 117 103 215 -6 100 -40 156 -123
198 -78 40 -150 41 -223 5z m165 -31 c17 -4 49 -22 71 -41 81 -69 87 -193 14
-274 -78 -86 -212 -85 -287 2 -62 73 -62 187 0 253 56 59 116 77 202 60z"/>
<path d="M230 370 c0 -11 -6 -20 -13 -20 -23 0 -47 -35 -47 -69 0 -29 5 -34
55 -56 30 -14 55 -29 55 -34 0 -17 -37 -22 -64 -10 -20 9 -29 9 -41 -1 -23
-19 -18 -30 20 -46 19 -8 35 -21 35 -29 0 -8 7 -15 15 -15 8 0 15 7 15 15 0 8
10 20 23 26 75 41 56 124 -33 144 -44 10 -36 26 11 23 47 -2 70 19 42 40 -9 6
-22 12 -29 12 -6 0 -14 9 -17 20 -3 11 -10 20 -16 20 -6 0 -11 -9 -11 -20z"/>
</g>
</svg>
